<?xml version="1.0" standalone="no"?>
<!DOCTYPE svg PUBLIC "-//W3C//DTD SVG 20010904//EN"
 "http://www.w3.org/TR/2001/REC-SVG-20010904/DTD/svg10.dtd">
<svg version="1.0" xmlns="http://www.w3.org/2000/svg"
 width="996.000000pt" height="1280.000000pt" viewBox="0 0 996.000000 1280.000000"
 preserveAspectRatio="xMidYMid meet">
<metadata>
Created by potrace 1.15, written by Peter Selinger 2001-2017
</metadata>
<g transform="translate(0.000000,1280.000000) scale(0.100000,-0.100000)"
fill="#000000" stroke="none">
<path d="M0 12531 l0 -268 63 -5 c112 -9 214 -67 284 -161 108 -148 109 -346
1 -491 -72 -97 -199 -166 -305 -166 l-43 0 0 -200 0 -200 43 0 c155 0 318
-127 367 -288 77 -248 -95 -509 -347 -530 l-63 -5 0 -197 0 -197 57 -6 c103
-9 170 -42 249 -121 95 -95 118 -152 119 -291 0 -93 -3 -105 -34 -169 -65
-133 -195 -226 -329 -234 l-62 -4 0 -199 0 -199 33 0 c89 -1 186 -42 262 -112
99 -90 141 -197 132 -330 -13 -195 -155 -346 -356 -379 l-71 -12 0 -192 0
-192 62 -7 c36 -3 89 -19 124 -35 216 -101 304 -346 200 -556 -62 -126 -173
-206 -317 -228 l-69 -11 0 -191 0 -191 71 -11 c145 -23 259 -108 322 -241 29
-61 32 -75 32 -167 0 -92 -3 -106 -32 -167 -63 -133 -177 -218 -322 -241 l-71
-11 0 -192 0 -192 71 -10 c141 -21 253 -102 315 -227 83 -169 46 -361 -96
-489 -58 -52 -152 -94 -228 -102 l-62 -7 0 -193 0 -193 48 -6 c164 -22 282
-106 348 -249 51 -111 42 -263 -22 -371 -27 -47 -104 -123 -154 -153 -46 -27
-134 -52 -182 -52 l-38 0 0 -199 0 -198 64 -5 c116 -10 233 -80 296 -178 121
-189 79 -427 -100 -561 -56 -42 -159 -79 -221 -79 l-39 0 0 -200 0 -200 43 0
c107 0 239 -72 307 -168 104 -145 104 -339 0 -484 -68 -96 -200 -168 -307
-168 l-43 0 0 -225 0 -225 143 0 143 0 11 71 c23 145 108 259 241 322 62 29
75 32 167 32 91 -1 106 -4 168 -32 129 -61 218 -180 240 -322 l11 -71 191 0
191 0 11 69 c23 146 101 254 231 318 73 36 80 38 176 38 93 0 107 -3 168 -32
133 -63 218 -174 240 -317 l13 -76 191 0 191 0 12 71 c16 96 54 173 118 237
139 139 359 161 518 52 98 -67 170 -185 181 -298 l7 -62 197 0 197 0 5 68 c7
88 46 171 115 240 179 179 470 157 624 -48 42 -56 79 -159 79 -221 l0 -39 199
0 199 0 4 63 c8 133 104 268 236 330 62 30 74 32 172 32 98 0 109 -2 173 -33
130 -64 224 -194 234 -326 l6 -66 197 0 197 0 5 64 c11 137 105 267 236 329
62 30 75 32 172 32 97 0 110 -2 172 -32 131 -62 225 -192 236 -329 l5 -64 197
0 197 0 6 67 c13 135 103 260 234 325 64 31 74 33 173 33 102 0 109 -1 182
-38 117 -57 205 -169 223 -282 3 -22 8 -55 11 -72 l5 -33 194 0 195 0 0 39 c0
113 78 252 181 320 85 57 151 74 258 69 104 -5 174 -35 254 -108 78 -71 114
-146 132 -272 l6 -48 145 0 144 0 0 243 0 242 -74 12 c-42 7 -101 25 -133 41
-72 37 -155 124 -191 199 -24 52 -27 69 -27 168 0 99 3 116 27 168 59 125 183
217 322 239 l76 13 0 190 0 191 -69 11 c-144 22 -263 108 -324 232 -30 62 -32
72 -32 176 0 104 2 114 32 176 69 139 218 238 361 239 l32 0 -2 196 -3 197
-53 4 c-143 11 -272 103 -338 241 -36 74 -44 201 -20 284 23 79 87 171 154
218 61 44 162 80 223 80 l39 0 -2 198 -3 197 -66 7 c-156 15 -293 129 -344
287 -27 84 -18 207 22 294 61 130 188 221 327 234 l66 6 -2 196 -3 196 -65 7
c-86 10 -193 63 -249 124 -24 25 -57 75 -74 112 -30 62 -32 75 -32 172 0 97 2
110 32 172 62 131 192 225 329 236 l64 5 0 197 0 197 -64 5 c-137 11 -268 105
-329 235 -42 92 -50 210 -18 304 51 155 201 271 361 281 l45 3 3 198 2 197
-37 0 c-96 0 -225 60 -290 135 -20 22 -50 69 -67 105 -29 61 -31 72 -31 175 0
99 3 115 27 165 72 146 176 217 361 245 l37 6 0 194 0 195 -39 0 c-113 0 -252
78 -320 181 -57 85 -74 151 -69 258 3 72 9 97 37 153 62 125 178 209 322 231
l69 11 0 193 0 193 -32 0 c-142 1 -293 101 -361 240 -30 61 -32 71 -32 175 0
99 3 116 27 168 59 125 185 218 327 240 l71 11 0 191 0 190 -76 13 c-139 22
-263 114 -322 239 -24 52 -27 69 -27 168 0 99 3 116 27 168 60 128 199 229
336 243 l62 7 0 243 0 244 -139 0 -139 0 -4 -55 c-6 -77 -65 -192 -126 -246
-26 -23 -76 -56 -112 -73 -60 -29 -73 -31 -170 -31 -117 0 -161 14 -250 80
-83 61 -160 203 -160 296 l0 29 -199 0 -198 0 -6 -56 c-13 -128 -109 -257
-235 -317 -62 -30 -75 -32 -172 -32 -97 0 -110 2 -172 32 -126 60 -222 189
-235 317 l-6 56 -197 0 -197 0 -6 -56 c-13 -128 -109 -257 -235 -317 -62 -30
-75 -32 -172 -32 -97 0 -110 2 -172 32 -37 17 -87 50 -112 74 -59 53 -115 164
-123 242 l-6 57 -198 0 -199 0 0 -29 c0 -46 -35 -146 -70 -201 -40 -62 -98
-111 -176 -147 -53 -25 -70 -28 -169 -28 -101 0 -115 2 -170 29 -123 60 -221
195 -232 318 l-6 58 -196 0 -197 0 -11 -66 c-24 -137 -107 -249 -230 -307 -64
-30 -75 -32 -178 -32 -99 0 -116 3 -168 27 -71 33 -155 111 -191 178 -22 39
-55 155 -56 193 0 4 -87 7 -193 7 l-194 0 -12 -67 c-25 -138 -109 -249 -230
-307 -61 -29 -74 -31 -176 -31 -99 0 -116 3 -168 27 -121 57 -214 180 -238
316 l-11 62 -192 0 -193 0 -12 -66 c-33 -178 -176 -320 -349 -344 -221 -30
-427 123 -464 346 l-11 64 -193 0 -193 0 -6 -37 c-24 -157 -102 -271 -230
-334 -249 -123 -540 29 -588 305 l-11 66 -153 0 -153 0 0 -269z"/>
</g>
</svg>
